<svg aria-hidden="true" style="position: absolute; width: 0; height: 0; overflow: hidden;" version="1.1" xmlns="http://www.w3.org/2000/svg" xmlns:xlink="http://www.w3.org/1999/xlink">
<defs>
<symbol id="icon-bed" viewBox="0 0 32 32">
<path d="M27 14.419c-0.587-0.265-1.274-0.419-1.996-0.419-0.002 0-0.003 0-0.005 0h-18c-2.76 0.003-4.997 2.24-5 5v7c0 0.552 0.448 1 1 1s1-0.448 1-1v0-0.5c0.004-0.275 0.225-0.496 0.5-0.5h23c0.275 0.004 0.496 0.225 0.5 0.5v0.5c0 0.552 0.448 1 1 1s1-0.448 1-1v0-7c-0.002-2.037-1.221-3.789-2.968-4.569l-0.032-0.013zM23.5 5h-15c-1.933 0-3.5 1.567-3.5 3.5v0 4.5c0 0 0 0.001 0 0.001 0 0.138 0.112 0.249 0.249 0.249 0.025 0 0.050-0.004 0.072-0.011l-0.002 0c0.545-0.16 1.111-0.24 1.68-0.24h0.264c0 0 0.001 0 0.002 0 0.128 0 0.234-0.096 0.249-0.22l0-0.001c0.115-1.004 0.96-1.777 1.985-1.779h3.5c1.026 0.001 1.872 0.774 1.986 1.769l0.001 0.009c0.015 0.125 0.121 0.221 0.249 0.221 0.001 0 0.001 0 0.002 0h1.529c0 0 0.001 0 0.002 0 0.128 0 0.233-0.096 0.248-0.22l0-0.001c0.115-1.004 0.959-1.777 1.984-1.779h3.5c1.026 0.001 1.872 0.774 1.986 1.769l0.001 0.009c0.015 0.125 0.121 0.221 0.249 0.221 0.001 0 0.001 0 0.002 0h0.263c0.569 0 1.135 0.080 1.68 0.24 0.021 0.006 0.045 0.010 0.069 0.010 0.138 0 0.25-0.112 0.251-0.25v-4.5c0-1.933-1.567-3.5-3.5-3.5v0z"></path>
</symbol>
<symbol id="icon-airplane" viewBox="0 0 32 32">
<path d="M11.663 29h-1.663c-0 0-0 0-0 0-0.552 0-1-0.448-1-1 0-0.15 0.033-0.292 0.092-0.42l-0.003 0.006 4.028-8.889-6.049-0.135-2.207 2.673c-0.42 0.528-0.756 0.764-1.612 0.764h-1.12c-0.011 0-0.023 0.001-0.036 0.001-0.359 0-0.679-0.172-0.88-0.438l-0.002-0.003c-0.149-0.201-0.295-0.541-0.152-1.027l1.239-4.437c0.011-0.041 0.022-0.074 0.035-0.106l-0.003 0.008v-0.009c-0.011-0.026-0.022-0.059-0.031-0.094l-0.001-0.006-1.24-4.467c-0.135-0.475 0.012-0.807 0.16-1.003 0.194-0.255 0.498-0.419 0.84-0.419 0.003 0 0.007 0 0.010 0h1.182c0.64 0 1.26 0.287 1.625 0.751l2.16 2.627 6.083-0.089-4.027-8.875c-0.056-0.121-0.089-0.263-0.089-0.413 0-0.552 0.447-0.999 0.999-1h1.68c0.493 0.010 0.928 0.247 1.208 0.61l0.003 0.004 7.816 9.499 3.611-0.093c0.264-0.016 0.996-0.020 1.165-0.020 3.453 0.001 5.517 1.123 5.517 3.001 0 0.591-0.237 1.688-1.817 2.385-0.933 0.413-2.179 0.621-3.701 0.621-0.167 0-0.897-0.005-1.165-0.020l-3.611-0.096-7.835 9.5c-0.283 0.364-0.717 0.599-1.206 0.609l-0.002 0z"></path>
</symbol>
<symbol id="icon-twitter" viewBox="0 0 32 32">
<path d="M30.786 6.493c-0.989 0.45-2.137 0.778-3.341 0.925l-0.057 0.006c1.224-0.741 2.143-1.878 2.589-3.231l0.012-0.042c-1.081 0.654-2.34 1.152-3.68 1.423l-0.076 0.013c-1.082-1.154-2.617-1.873-4.32-1.873-3.268 0-5.917 2.649-5.917 5.917 0 0.48 0.057 0.946 0.165 1.393l-0.008-0.040c-4.927-0.255-9.261-2.597-12.167-6.151l-0.024-0.030c-0.505 0.853-0.803 1.88-0.803 2.977 0 2.043 1.036 3.845 2.611 4.908l0.021 0.013c-0.989-0.032-1.908-0.303-2.71-0.756l0.029 0.015v0.076c0 0 0 0.001 0 0.001 0 2.853 2.019 5.235 4.707 5.793l0.038 0.007c-0.466 0.131-1.001 0.206-1.554 0.206-0.395 0-0.781-0.038-1.155-0.112l0.038 0.006c0.779 2.369 2.949 4.058 5.521 4.107l0.006 0c-1.998 1.582-4.555 2.538-7.335 2.538-0.502 0-0.997-0.031-1.483-0.092l0.058 0.006c2.557 1.666 5.687 2.658 9.048 2.658 0.007 0 0.013 0 0.020 0h-0.001c10.883 0 16.832-9.013 16.832-16.83 0-0.254-0.006-0.51-0.018-0.765 1.162-0.846 2.14-1.86 2.923-3.017l0.027-0.042 0.003-0.005z"></path>
</symbol>
<symbol id="icon-youtube" viewBox="0 0 32 32">
<path d="M30.603 8.488c-0.182-0.639-0.52-1.184-0.971-1.612l-0.002-0.001c-0.462-0.44-1.036-0.767-1.674-0.936l-0.027-0.006c-2.383-0.629-11.938-0.629-11.938-0.629-0.328-0.004-0.715-0.006-1.103-0.006-3.812 0-7.574 0.219-11.272 0.646l0.451-0.042c-0.664 0.188-1.236 0.522-1.701 0.966l0.002-0.001c-0.454 0.434-0.797 0.981-0.982 1.597l-0.007 0.026c-0.394 2.025-0.619 4.355-0.619 6.736 0 0.084 0 0.167 0.001 0.251l-0-0.013c-0.015 2.338 0.19 4.674 0.619 6.978 0.174 0.608 0.514 1.163 0.984 1.611 0.472 0.448 1.058 0.773 1.704 0.945 2.415 0.625 11.924 0.625 11.924 0.625 3.988 0.046 7.974-0.152 11.939-0.594 0.637-0.166 1.221-0.491 1.699-0.945 0.463-0.439 0.798-0.997 0.971-1.612 0.406-2.029 0.638-4.362 0.638-6.749 0-0.080-0-0.16-0.001-0.24l0 0.012c0.002-0.14 0.003-0.305 0.003-0.47 0-2.312-0.233-4.57-0.675-6.752l0.037 0.217zM12.952 19.81v-8.692l7.95 4.347-7.95 4.346z"></path>
</symbol>
<symbol id="icon-facebook" viewBox="0 0 32 32">
<path d="M2.286 15.314c0 6.819 4.952 12.488 11.429 13.638v-9.905h-3.429v-3.81h3.429v-3.048c0-3.429 2.21-5.333 5.333-5.333 0.99 0 2.057 0.152 3.048 0.305v3.505h-1.752c-1.676 0-2.057 0.838-2.057 1.905v2.667h3.657l-0.61 3.81h-3.048v9.905c6.476-1.15 11.429-6.819 11.429-13.638 0-7.586-6.171-13.79-13.714-13.79s-13.714 6.205-13.714 13.79z"></path>
</symbol>
<symbol id="icon-paper-plane" viewBox="0 0 32 32">
<path d="M27.984 2.144l-25.018 9.468c-0.541 0.22-0.915 0.742-0.915 1.35 0 0.637 0.409 1.178 0.979 1.375l0.010 0.003 0.026 0.008h0.004l8.58 3.666c0.081 0.025 0.175 0.040 0.272 0.040 0.251 0 0.48-0.097 0.65-0.256l-0.001 0.001 13.772-12.832c0.089-0.089 0.211-0.143 0.346-0.143 0.27 0 0.489 0.219 0.489 0.489 0 0.135-0.055 0.257-0.143 0.346v0l-12.836 13.766 13.786-17.28zM27.984 2.144c0.153-0.060 0.331-0.095 0.517-0.095 0.401 0 0.764 0.162 1.027 0.425l-0-0M27.986 2.144l1.542 0.33M29.528 2.474c0.262 0.263 0.425 0.626 0.425 1.027 0 0.187-0.035 0.366-0.1 0.531l0.003-0.010-9.462 24.994 9.136-26.542zM18.94 30h0.060c0.003 0 0.007 0 0.011 0 0.644 0 1.195-0.395 1.425-0.956l0.004-0.010-0.044-0.016c-0.227 0.552-0.761 0.934-1.384 0.934-0.004 0-0.007 0-0.011-0h-0.059M18.936 30v-0.048M18.936 30v-0.048M18.936 30c-0.631-0.035-1.152-0.463-1.327-1.042l-0.003-0.010-3.666-8.586M18.936 29.954c-0.597-0.034-1.092-0.432-1.271-0.974l-0.003-0.010v-0.002c-0.003-0.007-0.007-0.018-0.011-0.028l-0.001-0.004v-0.006l-3.666-8.584M13.984 20.346v0.002l-0.044 0.014M13.984 20.346c-0.025-0.082-0.040-0.176-0.040-0.274 0-0.251 0.097-0.479 0.255-0.649l-0.001 0.001-0.276 0.422c-0.016 0.067-0.025 0.145-0.025 0.224 0 0.104 0.016 0.204 0.045 0.299l-0.002-0.007M13.984 20.346v-0.002l-0.044 0.020"></path>
</symbol>
<symbol id="icon-add" viewBox="0 0 32 32">
<path d="M16 7v0zM25 16v0z"></path>
<path fill="none" stroke="#121" style="stroke: var(--color2, #121)" stroke-linejoin="round" stroke-linecap="round" stroke-miterlimit="4" stroke-width="3" d="M16 7v18M25 16h-18"></path>
</symbol>
<symbol id="icon-instagram" viewBox="0 0 32 32">
<path d="M15.235 11.681c-2.378 0-4.319 1.941-4.319 4.319s1.941 4.319 4.319 4.319c2.378 0 4.319-1.941 4.319-4.319s-1.941-4.319-4.319-4.319zM28.19 16c0-1.789 0.016-3.561-0.084-5.346-0.1-2.074-0.574-3.914-2.090-5.431-1.52-1.52-3.357-1.99-5.431-2.090-1.789-0.1-3.561-0.084-5.346-0.084-1.789 0-3.561-0.016-5.346 0.084-2.074 0.1-3.914 0.574-5.431 2.090-1.52 1.52-1.99 3.357-2.090 5.431-0.1 1.789-0.084 3.561-0.084 5.346s-0.016 3.561 0.084 5.346c0.1 2.074 0.574 3.914 2.090 5.431 1.52 1.52 3.357 1.99 5.431 2.090 1.789 0.1 3.561 0.084 5.346 0.084 1.789 0 3.561 0.016 5.346-0.084 2.074-0.1 3.914-0.574 5.431-2.090 1.52-1.52 1.99-3.357 2.090-5.431 0.104-1.785 0.084-3.558 0.084-5.346zM15.235 22.646c-3.678 0-6.646-2.968-6.646-6.646s2.968-6.646 6.646-6.646c3.678 0 6.646 2.968 6.646 6.646s-2.968 6.646-6.646 6.646zM22.153 10.634c-0.859 0-1.552-0.693-1.552-1.552s0.693-1.552 1.552-1.552c0.859 0 1.552 0.693 1.552 1.552 0 0.204-0.040 0.406-0.118 0.594s-0.192 0.36-0.336 0.504c-0.144 0.144-0.315 0.258-0.504 0.336s-0.39 0.118-0.594 0.118z"></path>
</symbol>
<symbol id="icon-star" viewBox="0 0 32 32">
<path fill="#ffc107" style="fill: var(--color1, #ffc107)" d="M24.625 30c-0.001 0-0.003 0-0.005 0-0.218 0-0.42-0.070-0.585-0.189l0.003 0.002-8.039-5.829-8.039 5.827c-0.162 0.118-0.366 0.189-0.585 0.189-0.552 0-1-0.448-1-1 0-0.114 0.019-0.224 0.054-0.326l-0.002 0.007 3.133-9.285-8.124-5.573c-0.262-0.183-0.431-0.483-0.431-0.823 0-0.55 0.444-0.997 0.994-1h10.024l3.024-9.309c0.134-0.405 0.509-0.692 0.951-0.692s0.817 0.287 0.949 0.685l0.002 0.007 3.027 9.312h10.023c0.001 0 0.002 0 0.003 0 0.552 0 1 0.448 1 1 0 0.342-0.172 0.644-0.434 0.824l-0.003 0.002-8.128 5.568 3.133 9.283c0.033 0.095 0.052 0.205 0.052 0.319 0 0.552-0.447 1-0.999 1.001h-0z"></path>
</symbol>
</defs>
</svg>
